<?xml version="1.0" encoding="UTF-8" standalone="no"?>
<svg
   version="1.1"
   width="1024"
   height="1024"
   id="svg13"
   sodipodi:docname="pollenlog2.svg"
   inkscape:version="1.4.2 (f4327f4, 2025-05-13)"
   xmlns:inkscape="http://www.inkscape.org/namespaces/inkscape"
   xmlns:sodipodi="http://sodipodi.sourceforge.net/DTD/sodipodi-0.dtd"
   xmlns="http://www.w3.org/2000/svg"
   xmlns:svg="http://www.w3.org/2000/svg">
  <defs
     id="defs13" />
  <sodipodi:namedview
     id="namedview13"
     pagecolor="#ffffff"
     bordercolor="#000000"
     borderopacity="0.25"
     inkscape:showpageshadow="2"
     inkscape:pageopacity="0.0"
     inkscape:pagecheckerboard="0"
     inkscape:deskcolor="#d1d1d1"
     inkscape:zoom="0.5698242"
     inkscape:cx="-178.12511"
     inkscape:cy="551.92461"
     inkscape:window-width="1920"
     inkscape:window-height="1009"
     inkscape:window-x="-8"
     inkscape:window-y="-8"
     inkscape:window-maximized="1"
     inkscape:current-layer="svg13" />
  <path
     d="M0 0 C6.75176166 6.20906687 11.07522474 14.56908458 13.3125 23.375 C13.539375 24.24125 13.76625 25.1075 14 26 C15.5197497 37.55009775 11.94951061 49.46009929 5.36328125 58.9375 C-0.09392658 65.42378131 -6.88627034 70.14690497 -14.6875 73.375 C-16.0075 73.375 -17.3275 73.375 -18.6875 73.375 C-18.66870789 74.44445862 -18.66870789 74.44445862 -18.64953613 75.53552246 C-18.49024068 84.64859501 -18.3365638 93.761755 -18.1875 102.875 C-18.16968412 103.96385498 -18.16968412 103.96385498 -18.15150833 105.07470703 C-17.75922935 129.17611315 -17.54349081 153.2700775 -17.6875 177.375 C-17.04973633 177.42325928 -16.41197266 177.47151855 -15.75488281 177.52124023 C2.57294502 179.09762513 17.51059106 187.6223906 31.3125 199.375 C32.17101562 200.0453125 33.02953125 200.715625 33.9140625 201.40625 C36.85371045 203.81925092 38.95100641 206.4062652 41.3125 209.375 C46.17532267 207.98879903 50.11367655 205.80390731 54.3125 203.0625 C60.81917956 198.9055401 67.40496732 194.91070217 74.0625 191 C83.68004267 185.3434035 93.25780507 179.62434981 102.81835938 173.87207031 C105.38098489 172.33389297 107.94775639 170.80284394 110.515625 169.2734375 C120.23211086 163.4798301 129.85146856 157.5779279 139.3125 151.375 C139.07273437 149.86873047 139.07273437 149.86873047 138.828125 148.33203125 C136.93395787 133.79573348 138.35270175 121.24578756 147.3125 109.375 C154.9476282 100.96296402 164.52919058 94.79571943 176.0703125 94.171875 C189.88143412 93.92182834 201.21812707 95.91219438 211.765625 105.63671875 C221.02350441 115.40040946 225.05939973 125.55162694 225.625 138.9375 C225.2800045 150.36293911 219.77490622 161.47593258 211.5625 169.25 C200.08203085 178.90049963 188.01677916 181.30583468 173.3125 180.375 C167.02587358 179.3203628 162.22625687 177.06092451 157.19921875 173.16796875 C155.25772924 172.10704053 155.25772924 172.10704053 152.98193359 173.16186523 C150.44978556 174.31261003 148.1029979 175.56906303 145.71484375 176.9921875 C144.40398804 177.76997559 144.40398804 177.76997559 143.06665039 178.56347656 C142.13715576 179.1200293 141.20766113 179.67658203 140.25 180.25 C138.79484985 181.1157666 138.79484985 181.1157666 137.31030273 181.99902344 C134.3084925 183.78679638 131.31002165 185.58004725 128.3125 187.375 C127.40790039 187.91608398 126.50330078 188.45716797 125.57128906 189.01464844 C120.54624816 192.02145053 115.52606495 195.03624908 110.50830078 198.05517578 C108.57861648 199.21504606 106.64736303 200.37220563 104.71484375 201.52734375 C94.91011591 207.39216948 85.14679301 213.32497107 75.38476562 219.26049805 C68.70673962 223.32005831 62.02001379 227.36431175 55.3125 231.375 C55.51214355 231.99745605 55.71178711 232.61991211 55.91748047 233.26123047 C56.76785499 235.95202906 57.541834 238.66031164 58.3125 241.375 C58.59867188 242.32117188 58.88484375 243.26734375 59.1796875 244.2421875 C63.7939088 261.86411837 62.61804816 281.08356019 57.3125 298.375 C56.93202593 299.69318545 56.55433427 301.01217778 56.1796875 302.33203125 C55.89351562 303.33621094 55.60734375 304.34039062 55.3125 305.375 C56.00746582 305.63079834 56.70243164 305.88659668 57.41845703 306.15014648 C60.66265833 307.52319844 63.58207869 309.18357479 66.6171875 310.97265625 C67.51874069 311.50239296 67.51874069 311.50239296 68.43850708 312.04283142 C70.35676917 313.17114526 72.27212178 314.30429911 74.1875 315.4375 C75.43471651 316.17152875 76.68211105 316.90525507 77.9296875 317.63867188 C84.8493683 321.71164283 91.74377115 325.82575757 98.62545776 329.96253967 C105.83713869 334.29588505 113.07515183 338.5847112 120.3125 342.875 C123.00026531 344.46830312 125.68777832 346.06203016 128.375 347.65625 C129.02879639 348.04393555 129.68259277 348.43162109 130.35620117 348.83105469 C133.74778391 350.84429619 137.13368945 352.86643238 140.51171875 354.90234375 C141.19161865 355.31190308 141.87151855 355.7214624 142.57202148 356.14343262 C143.86272557 356.92176533 145.15265134 357.70139076 146.44165039 358.48254395 C150.75996739 361.15503793 150.75996739 361.15503793 155.3125 363.375 C157.19312986 362.62360774 157.19312986 362.62360774 158.9375 361.1875 C168.782883 354.5757382 179.78154066 354.14998514 191.33203125 355.80859375 C201.88026134 358.23815748 211.21057173 364.42042026 217.3125 373.375 C224.762572 385.84352327 227.21195876 397.79373329 223.62890625 412.10546875 C219.32189794 424.14594976 211.11236209 433.18641935 199.62890625 438.65234375 C189.09542523 443.05042424 177.65582476 444.23164749 166.7109375 440.40625 C155.43082705 435.55616994 146.55083407 428.14048544 141.28515625 416.9296875 C136.98867397 405.6449509 137.25348564 393.98286698 140.3125 382.375 C139.63960937 382.12878906 138.96671875 381.88257813 138.2734375 381.62890625 C134.67847882 380.1065029 131.32437289 378.2415182 127.9375 376.3125 C127.2261792 375.90966797 126.5148584 375.50683594 125.78198242 375.09179688 C120.76810176 372.23848647 115.80809183 369.30286925 110.87353516 366.31420898 C104.5357453 362.48489213 98.14385195 358.74860751 91.75244141 355.00982666 C75.1633009 345.3055135 58.69933095 335.41733053 42.3125 325.375 C42.01682129 325.9952002 41.72114258 326.61540039 41.41650391 327.25439453 C37.86227844 334.08146274 30.48834378 339.04003273 24.3125 343.375 C23.6834375 343.85582031 23.054375 344.33664062 22.40625 344.83203125 C11.24360305 352.96788355 -4.79694295 359.375 -18.6875 359.375 C-18.57771911 367.55810081 -18.46473764 375.74114966 -18.34816074 383.92415619 C-18.29406188 387.72790249 -18.24088463 391.53165596 -18.19018555 395.33544922 C-17.90910531 416.3578897 -17.42092371 437.36324126 -16.6875 458.375 C-15.87128174 458.77114502 -15.05506348 459.16729004 -14.21411133 459.57543945 C-13.1392749 460.10355225 -12.06443848 460.63166504 -10.95703125 461.17578125 C-9.89331299 461.69567627 -8.82959473 462.21557129 -7.73364258 462.7512207 C1.88638935 467.87928293 8.06484183 476.48308173 12.25 486.4375 C15.11221613 496.28636793 14.88416678 510.15089495 10.3125 519.375 C4.0349521 530.06467458 -3.93392301 538.90094702 -16.12890625 542.34765625 C-30.1169457 545.53686991 -41.72093616 544.35755467 -54.21875 537.03125 C-62.85382428 531.2380989 -69.23537415 522.09729004 -72.21875 512.1171875 C-74.60926837 498.13265506 -72.60492081 485.71769536 -64.625 473.9140625 C-58.82314468 466.31082468 -51.44286665 462.05225399 -42.6875 458.375 C-42.0275 458.375 -41.3675 458.375 -40.6875 458.375 C-40.6875 425.705 -40.6875 393.035 -40.6875 359.375 C-43.6575 359.045 -46.6275 358.715 -49.6875 358.375 C-52.67156044 357.57818099 -55.52639904 356.74769826 -58.4375 355.75 C-59.21681885 355.48421143 -59.9961377 355.21842285 -60.79907227 354.94458008 C-77.39112041 349.0866582 -89.61818671 338.91556631 -101.6875 326.375 C-108.34391811 329.56913428 -114.62531065 333.2383707 -120.9375 337.0625 C-122.01797607 337.71387939 -123.09845215 338.36525879 -124.21166992 339.03637695 C-127.70615652 341.14508004 -131.19760434 343.25871182 -134.6875 345.375 C-135.2768634 345.73239258 -135.86622681 346.08978516 -136.47344971 346.45800781 C-141.83959537 349.71281401 -147.2042512 352.97006869 -152.56640625 356.23144531 C-159.50747073 360.45213039 -166.46388396 364.64583107 -173.4375 368.8125 C-181.92631615 373.88640448 -190.32500196 379.09588113 -198.6875 384.375 C-198.53152344 385.01824219 -198.37554687 385.66148437 -198.21484375 386.32421875 C-195.47357175 399.05025632 -196.74898207 410.95784936 -203.37890625 422.2578125 C-210.37089218 432.62572698 -219.96343975 439.06417866 -232.13671875 441.95703125 C-244.2512346 443.94210506 -255.54005399 441.60009783 -265.625 434.5625 C-274.57647702 427.49213047 -282.09007841 418.05392671 -283.6875 406.375 C-284.62903005 393.2861888 -282.93880121 381.35948236 -274.796875 370.66015625 C-268.4063473 363.73708458 -260.62332949 359.19432588 -251.6875 356.375 C-251.08808594 356.18421875 -250.48867188 355.9934375 -249.87109375 355.796875 C-239.32198987 353.75876548 -226.94111313 354.67884635 -217.79296875 360.6015625 C-217.28378906 360.98054688 -216.77460938 361.35953125 -216.25 361.75 C-215.404375 362.28625 -214.55875 362.8225 -213.6875 363.375 C-209.84879643 362.22270135 -206.59676637 360.22106657 -203.19921875 358.12890625 C-202.11608398 357.46576416 -201.03294922 356.80262207 -199.91699219 356.11938477 C-199.34122437 355.76466095 -198.76545654 355.40993713 -198.17224121 355.04446411 C-195.05625558 353.12525358 -191.93244803 351.21886751 -188.80859375 349.3125 C-188.15235016 348.91176773 -187.49610657 348.51103546 -186.81997681 348.09815979 C-179.23401915 343.47461253 -171.58515678 338.95795086 -163.9375 334.4375 C-155.22291823 329.28342321 -146.52816322 324.11187213 -137.97753906 318.68823242 C-130.66212794 314.05962881 -123.16948957 309.7271474 -115.6875 305.375 C-116.22802238 301.18981245 -116.91566501 297.22905994 -118.125 293.1875 C-124.11531622 271.60474303 -121.69117018 251.38601053 -114.6875 230.375 C-124.36177608 224.51028341 -134.10989643 218.77419694 -143.875 213.0625 C-153.10967099 207.66041451 -162.32088891 202.22421827 -171.48510742 196.703125 C-178.63604842 192.3969907 -185.79868203 188.10905136 -193.01879883 183.91967773 C-196.89137211 181.66764879 -200.70226132 179.43534892 -204.3203125 176.7890625 C-207.15602605 174.79739946 -209.33971761 173.26708842 -212.6875 172.375 C-216.17244503 173.32109965 -218.77214441 174.66536313 -221.80078125 176.62109375 C-230.6673394 182.00821771 -243.04060212 181.75944264 -252.98828125 179.6875 C-259.00812731 177.6439879 -264.85909468 174.54769596 -269.6875 170.375 C-269.6875 169.715 -269.6875 169.055 -269.6875 168.375 C-270.6775 168.045 -271.6675 167.715 -272.6875 167.375 C-281.25141717 158.07589737 -284.33418154 146.56171244 -284.15820312 134.19042969 C-283.63765648 122.74394129 -278.55242259 112.99716917 -270.328125 105.11328125 C-258.80851803 95.43609589 -247.57185376 93.31396675 -232.6875 94.375 C-220.42462263 96.8937835 -211.08352177 103.37906664 -203.6875 113.375 C-197.21055565 123.68221855 -195.24725272 134.77444167 -197.703125 146.625 C-197.88649414 147.51703125 -198.06986328 148.4090625 -198.25878906 149.328125 C-198.40026367 150.00359375 -198.54173828 150.6790625 -198.6875 151.375 C-187.71413364 158.15715004 -176.65786403 164.79504182 -165.5625 171.375 C-164.54910049 171.97601532 -164.54910049 171.97601532 -163.51522827 172.58917236 C-159.29384614 175.09225086 -155.07154174 177.59377061 -150.84893799 180.0947876 C-145.08484371 183.50884112 -139.32142083 186.92402238 -133.55938721 190.34155273 C-131.56795066 191.52221415 -129.57575048 192.70157869 -127.58349609 193.88085938 C-126.95803894 194.25179718 -126.33258179 194.62273499 -125.68817139 195.00491333 C-124.46537119 195.72994446 -123.24179672 196.45367158 -122.01739502 197.17599487 C-118.97998749 198.97603798 -115.98013327 200.81647695 -113.01708984 202.73681641 C-112.42715744 203.11485916 -111.83722504 203.49290192 -111.22941589 203.88240051 C-109.61365315 204.92265426 -108.00705369 205.97710163 -106.40112305 207.0324707 C-103.85645902 208.57764203 -103.85645902 208.57764203 -101.45605469 208.2097168 C-98.79832611 206.95533055 -97.2265677 205.03489185 -95.25 202.875 C-80.99651189 188.26725853 -63.29130214 180.86236821 -43.6875 176.375 C-42.6975 176.375 -41.7075 176.375 -40.6875 176.375 C-41.0175 142.715 -41.3475 109.055 -41.6875 74.375 C-46.3075 72.065 -50.9275 69.755 -55.6875 67.375 C-64.3130436 60.06724778 -70.81179972 50.70735589 -72.6875 39.375 C-73.67184581 26.72889064 -72.1276078 16.70599307 -64.6875 6.375 C-63.98625 5.364375 -63.285 4.35375 -62.5625 3.3125 C-46.47768378 -15.25861273 -18.31245892 -14.1523903 0 0 Z "
     fill="#000000"
     transform="translate(541.6875,159.625)"
     id="path2" />
  <path
     d="M0 0 C2.52455353 2.21565801 4.91512732 4.5034098 7.2734375 6.89453125 C7.92183594 7.53261719 8.57023438 8.17070312 9.23828125 8.828125 C20.39572086 20.5715133 25.42527482 37.95161231 25.2734375 53.89453125 C24.66207812 63.58894425 22.25664604 72.06372287 18.2734375 80.89453125 C17.75330078 82.07789063 17.75330078 82.07789063 17.22265625 83.28515625 C10.42724503 97.0242422 -2.46356992 107.3773487 -16.53125 112.828125 C-35.18898938 119.05497445 -52.02831517 118.01736776 -69.9140625 109.83203125 C-85.61321078 101.52071746 -95.85617846 87.83600558 -101.6640625 71.2109375 C-107.04861387 53.3746111 -104.49542562 35.74708834 -96.3828125 19.14453125 C-90.38175992 8.47599333 -82.43258077 0.74097419 -71.7265625 -5.10546875 C-70.46585937 -5.81509766 -70.46585937 -5.81509766 -69.1796875 -6.5390625 C-47.65249376 -17.53097809 -19.08750171 -14.73948914 0 0 Z "
     fill="#FEFEFE"
     transform="translate(551.7265625,376.10546875)"
     id="path3" />
  <path
     d="M0 0 C0.90621094 0.40089844 1.81242187 0.80179688 2.74609375 1.21484375 C16.95780224 8.16950961 26.37676447 19.28025958 32.1171875 33.83203125 C33.71493888 38.78506054 34.69089006 43.80133277 35 49 C35.05285156 49.87011719 35.10570312 50.74023438 35.16015625 51.63671875 C35.65399695 67.71874842 31.57702931 82.28935246 20.75 94.3125 C10.28396008 105.41419426 -2.32491379 112.50701804 -17.69140625 113.37109375 C-35.13890871 113.80976772 -51.57117616 109.99529505 -64.8125 97.75 C-75.67155127 85.93513982 -81.7409289 69.87866603 -81.2265625 53.81640625 C-79.86480215 36.88831639 -75.61043103 22.00993432 -63 10 C-45.87193068 -4.07786519 -20.65918994 -9.7058639 0 0 Z "
     fill="#010101"
     transform="translate(380,756)"
     id="path4" />
  <path
     d="M0 0 C65.25676546 0 65.25676546 0 77.40234375 11.140625 C85.44594325 20.50188016 87.76845445 31.01538066 87 43 C86.2482386 50.67643679 84.24308419 56.56356767 80 63 C79.443125 63.886875 78.88625 64.77375 78.3125 65.6875 C69.75537924 74.24462076 58.75491863 77.22437128 46.92578125 77.29296875 C44.05452209 77.27605438 41.18337488 77.23742698 38.3125 77.1875 C33.259375 77.125625 28.20625 77.06375 23 77 C23 88.88 23 100.76 23 113 C15.41 113 7.82 113 0 113 C0 75.71 0 38.42 0 0 Z "
     fill="#030303"
     transform="translate(194,754)"
     id="path5" />
  <path
     d="M0 0 C19 0 19 0 23.20703125 3.26953125 C24.58007812 5.43359375 24.58007812 5.43359375 25.8125 7.8125 C26.83694075 9.47705055 27.86438734 11.13975418 28.89453125 12.80078125 C29.39936035 13.66268066 29.90418945 14.52458008 30.42431641 15.41259766 C33.00408281 19.64878673 36.00962922 23.54852652 39 27.5 C40.17561486 29.08673841 41.34879675 30.67528232 42.51953125 32.265625 C43.09654785 33.04873047 43.67356445 33.83183594 44.26806641 34.63867188 C47.58069147 39.15512376 50.85491027 43.6993343 54.12304688 48.24804688 C59.36547535 55.53664527 64.68953704 62.7584596 70 70 C70.33 46.9 70.66 23.8 71 0 C78.59 0 86.18 0 94 0 C94 37.29 94 74.58 94 113 C87.07 113 80.14 113 73 113 C65.74941021 104.77336927 65.74941021 104.77336927 63.75 100.9140625 C61.04504062 95.96085065 57.86821894 91.5189941 54.5 87 C53.40353756 85.49155123 52.30977811 83.98113395 51.21875 82.46875 C50.6825 81.72625 50.14625 80.98375 49.59375 80.21875 C47.03904146 76.66219497 44.52009209 73.0811835 42 69.5 C35.73193143 60.62023619 29.36379724 51.81141156 23 43 C22.67 66.1 22.34 89.2 22 113 C14.74 113 7.48 113 0 113 C0 75.71 0 38.42 0 0 Z "
     fill="#010101"
     transform="translate(734,754)"
     id="path6" />
  <path
     d="M0 0 C25.41 0 50.82 0 77 0 C77 7.59 77 15.18 77 23 C58.85 23 40.7 23 22 23 C22 30.59 22 38.18 22 46 C37.84 46 53.68 46 70 46 C70 52.6 70 59.2 70 66 C54.16 66 38.32 66 22 66 C22 74.25 22 82.5 22 91 C40.48 91 58.96 91 78 91 C78 98.26 78 105.52 78 113 C52.26 113 26.52 113 0 113 C0 75.71 0 38.42 0 0 Z "
     fill="#010101"
     transform="translate(629,754)"
     id="path7" />
  <path
     d="M0 0 C7.59 0 15.18 0 23 0 C23 30.03 23 60.06 23 91 C39.5 91 56 91 73 91 C73 98.26 73 105.52 73 113 C48.91 113 24.82 113 0 113 C0 75.71 0 38.42 0 0 Z "
     fill="#030303"
     transform="translate(532,754)"
     id="path9" />
  <path
     d="M0 0 C7.59 0 15.18 0 23 0 C23 30.03 23 60.06 23 91 C39.5 91 56 91 73 91 C73 98.26 73 105.52 73 113 C48.91 113 24.82 113 0 113 C0 75.71 0 38.42 0 0 Z "
     fill="#030303"
     transform="translate(437,754)"
     id="path10" />
  <path
     d="M0 0 C0.33 0 0.66 0 1 0 C1 37.29 1 74.58 1 113 C0.01 112.34 -0.98 111.68 -2 111 C-2.28601949 107.91987386 -2.37789828 105.04177078 -2.34057617 101.96044922 C-2.34101425 101.02381439 -2.34145233 100.08717957 -2.34190369 99.12216187 C-2.33980819 96.01612741 -2.31644122 92.91062804 -2.29296875 89.8046875 C-2.28737551 87.65520523 -2.28310413 85.50571914 -2.28010559 83.35623169 C-2.26863547 77.69095351 -2.2391496 72.02590502 -2.20599365 66.36071777 C-2.17533946 60.58295805 -2.16161021 54.80516131 -2.14648438 49.02734375 C-2.11428202 37.68479476 -2.0630595 26.34241646 -2 15 C-1.67 15 -1.34 15 -1 15 C-0.67 10.05 -0.34 5.1 0 0 Z "
     fill="#D4D4D3"
     transform="translate(733,754)"
     id="path12" />
  <path
     d="M0 0 C0 32.67 0 65.34 0 99 C-0.99 98.67 -1.98 98.34 -3 98 C-3 65.99 -3 33.98 -3 1 C-1 0 -1 0 0 0 Z "
     fill="#CFCFCF"
     transform="translate(501,519)"
     id="path13" />
</svg>
